PathFileType	4	(X/Y/Z)	C:\Users\Basilio\Documents\Thesis Gigler\squatting_fais\c3dfiles\041\SLS_pre_back1\markers_experimental.trc
DataRate	CameraRate	NumFrames	NumMarkers	Units	OrigDataRate	OrigDataStartFrame	OrigNumFrames
200.000000	200.000000	4	62	mm	200.000000	217	1738
Frame#	Time	FHD			LBHD			RBHD			C7			T10			CLAV			LSHO			LUUPA			LMUPA			LDUPA			LLEP			LMEP			LRAD			LUL			LRFIN			RSHO			RUPA1			RMUPA			RDUPA			RLEP			RMEP			RRAD			RUL			RUFIN			LASI			RASI			USACR			LSACR			RSACR			LTHI1			LTHI2			LTHI3			LTHI4			LLFC			LMFC			LTIB1			LTIB2			LTIB3			LTIB4			LLMAL			LMMAL			LHEE			LMT1			LMT2			LMT5			RTHI			RTHI2			RTHI3			RTHI4			RLFC			RMFC			RTIB1			RTIB2			RTIB3			RTIB4			RLMAL			RMMAL			RHEE			RMT1			RMT2			RMT5			*61			
		X1	Y1	Z1	X2	Y2	Z2	X3	Y3	Z3	X4	Y4	Z4	X5	Y5	Z5	X6	Y6	Z6	X7	Y7	Z7	X8	Y8	Z8	X9	Y9	Z9	X10	Y10	Z10	X11	Y11	Z11	X12	Y12	Z12	X13	Y13	Z13	X14	Y14	Z14	X15	Y15	Z15	X16	Y16	Z16	X17	Y17	Z17	X18	Y18	Z18	X19	Y19	Z19	X20	Y20	Z20	X21	Y21	Z21	X22	Y22	Z22	X23	Y23	Z23	X24	Y24	Z24	X25	Y25	Z25	X26	Y26	Z26	X27	Y27	Z27	X28	Y28	Z28	X29	Y29	Z29	X30	Y30	Z30	X31	Y31	Z31	X32	Y32	Z32	X33	Y33	Z33	X34	Y34	Z34	X35	Y35	Z35	X36	Y36	Z36	X37	Y37	Z37	X38	Y38	Z38	X39	Y39	Z39	X40	Y40	Z40	X41	Y41	Z41	X42	Y42	Z42	X43	Y43	Z43	X44	Y44	Z44	X45	Y45	Z45	X46	Y46	Z46	X47	Y47	Z47	X48	Y48	Z48	X49	Y49	Z49	X50	Y50	Z50	X51	Y51	Z51	X52	Y52	Z52	X53	Y53	Z53	X54	Y54	Z54	X55	Y55	Z55	X56	Y56	Z56	X57	Y57	Z57	X58	Y58	Z58	X59	Y59	Z59	X60	Y60	Z60	X61	Y61	Z61	X62	Y62	Z62	

218	1.085	-98.05261230468753	1686.02783203125	-1062.419311523438	-283.2390136718751	1720.736206054688	-1138.03369140625	-264.2400207519532	1711.370483398438	-985.7310791015627	-388.6873474121095	1562.88525390625	-1080.607788085938	-428.3482971191407	1241.107543945313	-1067.886474609375	-239.2903747558594	1486.2080078125	-1074.74853515625	-313.8342895507813	1541.47216796875	-1247.357543945313	-326.2525634765626	1361.2001953125	-1351.488403320313	-284.8533020019532	1335.170654296875	-1348.287231445313	-323.1421508789063	1297.067993164063	-1378.087158203125	-317.2701110839844	1248.928466796875	-1389.196166992188	-327.7219848632813	1202.8671875	-1316.5869140625	-145.7605438232422	1027.584106445313	-1386.419311523438	-197.0077514648438	1019.512268066406	-1439.759887695313	-95.27436828613283	984.830261230469	-1425.960327148438	-313.9967651367188	1542.848022460938	-910.3581542968752	-353.3806152343751	1340.236083984375	-801.640563964844	-304.1872558593751	1332.082275390625	-804.7295532226565	-321.4247436523438	1280.090942382813	-782.974792480469	-310.2874755859376	1236.0517578125	-774.0726318359377	-342.1776428222657	1202.81640625	-852.414978027344	-159.0616302490235	1024.096557617188	-836.4769287109377	-203.5482788085938	1003.185729980469	-777.9070434570315	-106.0906982421875	968.3704833984377	-820.0852661132815	-237.2196960449219	1051.887084960938	-1148.823486328125	-273.9834594726563	1055.012817382813	-923.2641601562502	-433.2442626953126	1126.953857421875	-1064.632934570313	-443.5161132812501	1099.794555664063	-1092.453002929688	-454.0560913085939	1101.28662109375	-1038.869873046875	-336.1222229003907	842.2791137695315	-1219.21337890625	-299.4088134765626	767.3193969726564	-1203.758422851563	-253.1753845214844	773.196960449219	-1188.39794921875	-326.2810668945313	713.6098022460939	-1194.5146484375	-308.7418212890626	535.0469970703126	-1163.101806640625	-319.4568786621094	524.0490722656251	-1044.172973632813	-298.3421936035157	345.9486389160157	-1093.956420898438	-339.2898864746094	301.3279418945313	-1159.830932617188	-304.7328796386719	297.4436950683594	-1128.779541015625	-317.7289733886719	222.7357635498047	-1092.748657226563	-377.3020935058594	130.2235870361328	-1133.218872070313	-348.8274536132813	138.1948852539063	-1049.018798828125	-444.6166076660157	111.2845916748047	-1096.614624023438	-241.9945220947266	62.09657287597658	-1048.220458984375	-231.6677551269532	56.40811920166017	-1092.57958984375	-272.8292236328126	43.26096725463868	-1151.406494140625	-357.8393249511719	790.6509399414065	-848.3846435546877	-311.0357971191407	744.9121093750001	-836.4988403320315	-278.5031738281251	752.4405517578126	-837.8028564453127	-320.7637023925782	661.0802612304689	-848.1669921875002	-302.6291809082032	546.5968627929689	-836.5734863281252	-268.7093200683594	516.9064941406251	-946.7998046875002	-298.7167358398438	377.1958312988282	-830.423522949219	-396.291473388672	320.9069824218751	-825.5013427734377	-352.4951171875001	309.0006713867188	-818.4812011718752	-337.2561035156251	254.9792785644532	-841.424743652344	-420.5910034179689	158.2430572509766	-829.6589355468752	-378.9967346191407	160.0264434814453	-904.1660156250002	-480.5284729003907	135.032470703125	-888.1501464843752	-275.9297485351563	63.69884872436525	-863.5609130859377	-278.2702331542969	69.56867980957033	-811.5020141601565	-331.8085632324219	67.26786041259767	-770.9315185546877	-4216.917968750001	853.1473388671877	-3944.821777343751	
219	1.09	-98.809928894043	1686.938232421875	-1062.921508789063	-284.3765258789063	1720.745727539063	-1138.472045898438	-265.1693115234376	1711.504760742188	-986.1901855468752	-389.0845642089845	1562.722778320313	-1080.910400390625	-428.1591186523439	1240.87841796875	-1068.233520507813	-239.4997100830079	1486.37451171875	-1075.361938476563	-314.1439819335938	1541.528076171875	-1247.655029296875	-325.3605346679688	1361.57470703125	-1352.419677734375	-284.0170898437501	1335.879272460938	-1348.980224609375	-322.0112304687501	1297.61474609375	-1379.101684570313	-315.9880371093751	1249.440673828125	-1390.288330078125	-326.0143127441407	1203.179931640625	-1317.937744140625	-143.5331420898438	1029.671752929688	-1387.886596679688	-193.7958374023438	1021.1298828125	-1441.579345703125	-91.88613128662111	986.9993286132815	-1427.587280273438	-313.9692077636719	1542.752685546875	-910.732604980469	-351.6713562011719	1339.9765625	-802.0659790039065	-302.3418884277344	1332.376220703125	-805.5098266601565	-319.3320312500001	1280.169799804688	-783.4011230468752	-307.8650207519532	1236.12353515625	-774.4384765625002	-339.8071899414063	1202.63330078125	-852.753845214844	-155.3685607910157	1025.3583984375	-837.570007324219	-199.4212646484376	1003.972229003906	-778.9509887695315	-101.8880081176758	969.9505615234377	-821.5323486328127	-237.0100555419922	1051.892700195313	-1149.271118164063	-273.3374328613282	1054.924926757813	-923.8673095703127	-432.8702087402345	1126.736572265625	-1064.928955078125	-443.2717895507814	1099.666381835938	-1092.684814453125	-453.7071838378907	1101.075805664063	-1039.1494140625	-335.9188842773438	842.276306152344	-1219.547973632813	-299.2548217773438	767.3142089843751	-1204.0048828125	-253.2213745117188	773.1790771484377	-1188.523071289063	-326.1409606933594	713.6535034179689	-1194.77099609375	-308.6032409667969	535.0014648437501	-1163.338256835938	-319.2519531250001	524.0720214843751	-1044.434692382813	-298.3044128417969	345.8676147460938	-1094.119995117188	-339.8121948242188	301.3976745605469	-1160.07177734375	-304.6529235839844	297.1974182128907	-1128.879760742188	-317.6743774414063	222.685287475586	-1092.82568359375	-377.2588195800782	130.1798858642578	-1133.18359375	-348.8169250488282	138.2030944824219	-1048.995483398438	-444.6076965332032	111.2785720825196	-1096.617065429688	-241.7427215576172	61.88152313232423	-1048.318359375	-232.3397216796876	55.63019180297853	-1093.37841796875	-272.8242187500001	43.28215026855469	-1151.404541015625	-357.0377197265626	790.5115966796877	-848.7421875000002	-310.2935485839844	744.7469482421876	-836.8748168945315	-277.5833435058594	752.4468383789064	-838.3233032226565	-319.9477539062501	661.0253906250001	-848.4868774414065	-301.9978332519532	546.4184570312501	-836.9226074218752	-268.9321594238282	517.1445312500001	-947.2930908203127	-298.4506225585938	377.2042846679688	-830.692565917969	-396.1195068359376	321.0790710449219	-825.773376464844	-352.2007141113282	309.0229797363282	-818.7090454101565	-337.1070556640626	255.0211181640626	-841.494567871094	-420.4155273437501	158.3702850341797	-829.8088378906252	-378.9179992675782	160.1277923583985	-904.330017089844	-480.4367675781251	135.150863647461	-888.3342285156252	-275.8883972167969	63.79502105712892	-863.6196899414065	-278.2304382324219	69.77215576171876	-811.505798339844	-331.7804260253907	67.41775512695314	-771.050964355469	-4217.286132812501	853.2551269531252	-3944.781738281251	
220	1.095	-99.47832489013675	1687.793579101563	-1063.392700195313	-285.2952270507813	1720.817260742188	-1138.761352539063	-266.1826782226563	1711.63037109375	-986.4525146484377	-389.4734497070314	1562.455322265625	-1081.172973632813	-427.9313049316407	1240.682006835938	-1068.5595703125	-239.6709442138672	1486.463623046875	-1075.944458007813	-314.4028625488282	1541.587646484375	-1247.991943359375	-324.8748474121094	1362.061767578125	-1353.09765625	-283.1875000000001	1336.645263671875	-1349.891967773438	-320.9450988769532	1298.107177734375	-1380.102294921875	-314.4136657714844	1250.102905273438	-1391.554321289063	-324.6941833496094	1203.493530273438	-1319.170776367188	-140.202865600586	1030.732421875	-1389.224975585938	-190.4418640136719	1022.822143554688	-1443.356323242188	-88.65782928466798	989.459167480469	-1428.963745117188	-313.9814758300782	1542.673950195313	-911.229919433594	-350.5998840332032	1339.740844726563	-802.471862792969	-300.6831359863282	1332.574462890625	-805.7778930664065	-317.6583862304688	1280.113403320313	-783.892272949219	-305.2371215820313	1236.329711914063	-775.243591308594	-337.5790710449219	1202.479125976563	-853.017028808594	-151.6514434814453	1026.431396484375	-838.792663574219	-195.2623443603516	1004.707763671875	-780.0715332031252	-97.49895477294925	971.5166625976565	-823.0126953125002	-236.4051055908204	1051.850341796875	-1149.814331054688	-272.6669006347657	1054.87109375	-924.5588378906252	-432.7066040039064	1126.758178710938	-1065.40478515625	-442.9898071289064	1099.5078125	-1092.973388671875	-453.4546813964845	1100.940673828125	-1039.437255859375	-335.7053222656251	842.1997680664065	-1219.863403320313	-299.0489501953126	767.2515258789064	-1204.197021484375	-253.9254455566407	773.5899658203127	-1189.069458007813	-325.9580993652344	713.6110229492189	-1195.20068359375	-308.4995117187501	534.9848022460939	-1163.56103515625	-319.1275329589844	524.0229492187501	-1044.743774414063	-298.2624511718751	345.9021911621094	-1094.304931640625	-339.6785888671876	301.3456726074219	-1160.127197265625	-304.5767211914063	297.1600341796876	-1129.005737304688	-317.6839294433594	222.6153106689454	-1092.950561523438	-377.3205566406251	130.1976318359375	-1133.118530273438	-348.7802429199219	138.1881713867188	-1048.964599609375	-444.6224975585939	111.3730163574219	-1096.572875976563	-241.7227630615235	61.847225189209	-1048.316528320313	-232.5558471679688	55.41117477416994	-1093.653930664063	-272.8058471679688	43.24155044555665	-1151.40185546875	-356.2071838378907	790.4295043945315	-849.0947875976565	-309.6547241210938	744.7946166992189	-837.1849365234377	-276.8926696777344	752.3819580078126	-838.7094726562502	-319.3247680664063	661.0772094726564	-848.6414794921877	-301.1389160156251	546.4384155273439	-837.436462402344	-268.1101989746094	517.0636596679689	-947.708190917969	-298.1408081054688	377.1665649414063	-830.8808593750002	-395.906463623047	321.3132019042969	-826.0249023437502	-351.9010009765626	309.0734863281251	-818.8996582031252	-336.8139343261719	255.0274505615235	-841.648864746094	-420.3575134277345	158.454345703125	-829.8725585937502	-378.7486877441407	160.1581573486328	-904.4676513671877	-480.353240966797	135.1771697998047	-888.4448852539065	-275.9149780273438	63.83099746704103	-863.7642211914065	-278.2421875000001	69.87619018554689	-811.5401000976565	-331.7087097167969	67.53060150146486	-771.1185302734377	-4216.932617187501	853.149597167969	-3944.611572265626	
221	1.1	-100.7975463867188	1688.697143554688	-1063.831420898438	-286.1687927246094	1720.84326171875	-1139.140014648438	-267.1066894531251	1711.785034179688	-986.8560180664065	-389.9953002929689	1562.339965820313	-1081.499389648438	-427.762176513672	1240.512329101563	-1068.856567382813	-239.5784759521485	1486.595581054688	-1076.440185546875	-314.8570861816407	1541.674194335938	-1248.30126953125	-324.3353881835938	1362.52880859375	-1353.888916015625	-282.4684448242188	1337.344604492188	-1350.70947265625	-319.8440246582032	1298.674560546875	-1381.11376953125	-313.1300659179688	1250.681762695313	-1392.5751953125	-322.7222900390626	1203.822143554688	-1320.692016601563	-137.8054809570313	1032.798583984375	-1390.541870117188	-187.3211822509766	1024.525512695313	-1445.068359375	-85.22940063476564	991.684753417969	-1430.139404296875	-313.9744262695313	1542.602783203125	-911.7171020507815	-348.8157043457032	1339.601806640625	-803.1433715820315	-299.3899841308594	1332.754272460938	-806.0433349609377	-315.5480041503907	1280.223022460938	-784.436706542969	-303.0262145996094	1236.467163085938	-775.331970214844	-335.2631225585938	1202.388427734375	-853.346862792969	-148.0792541503907	1028.220458984375	-839.828796386719	-191.3674468994141	1005.907531738281	-781.017517089844	-93.46480560302736	973.102233886719	-824.3248291015627	-236.2399291992188	1052.01123046875	-1150.371948242188	-272.3471374511719	1054.88037109375	-924.821228027344	-432.2389221191407	1126.4443359375	-1065.552856445313	-442.652557373047	1099.37744140625	-1093.301391601563	-453.2463684082032	1100.825317382813	-1039.712524414063	-335.4492797851563	842.1630859375002	-1220.199829101563	-298.8534545898438	767.2752075195314	-1204.571533203125	-253.4895172119141	773.4317626953127	-1189.555786132813	-325.8359680175782	713.6554565429689	-1195.386840820313	-308.4127807617188	534.8823852539064	-1163.86474609375	-318.9307556152344	524.0375366210939	-1045.082641601563	-298.2933044433594	345.7947082519532	-1094.4951171875	-339.7362670898438	301.2640991210938	-1160.231079101563	-304.6354675292969	297.0890502929688	-1129.117797851563	-317.6313781738282	222.6142272949219	-1093.009033203125	-377.2728576660157	130.1764373779297	-1133.10791015625	-348.7843933105469	138.1837310791016	-1048.975708007813	-444.5982666015626	111.4048919677735	-1096.5341796875	-241.6991271972657	61.80282211303712	-1048.319946289063	-232.5269165039063	55.4218101501465	-1093.635620117188	-272.7758178710938	43.20731735229493	-1151.41552734375	-355.7725830078126	790.320983886719	-849.150573730469	-308.9331665039063	744.7294311523439	-837.5603027343752	-276.2568969726563	752.2688598632814	-839.1843872070315	-318.4221191406251	661.0090332031251	-848.8960571289065	-300.4062194824219	546.3580932617189	-837.8172607421877	-267.4122924804688	516.9457397460939	-948.087829589844	-297.9048767089844	377.1369323730469	-830.9654541015627	-395.7165527343751	321.4930725097657	-826.2962646484377	-351.6997680664063	309.1222229003907	-819.1611938476565	-336.5976257324219	255.0085754394532	-841.8283691406252	-420.3524475097657	158.559326171875	-829.9232177734377	-378.6523742675782	160.3237915039063	-904.707702636719	-480.3436279296876	135.1931915283203	-888.4856567382815	-275.8666687011719	63.87273406982423	-863.8047485351565	-278.1802368164063	69.91712188720705	-811.6284179687502	-331.6293945312501	67.63900756835939	-771.2427978515627	-4216.703125000001	853.0468750000002	-3944.793457031251	
